<svg width="540" height="448" viewBox="0 0 540 448" fill="none" xmlns="http://www.w3.org/2000/svg">
<path d="M263.262 149.974C263.262 147.546 261.294 145.578 258.866 145.578C256.439 145.578 254.471 147.546 254.471 149.974V443.031C254.471 445.458 256.439 447.426 258.866 447.426C261.294 447.426 263.262 445.458 263.262 443.031V149.974Z" fill="#2B254E"/>
<path fill-rule="evenodd" clip-rule="evenodd" d="M89.8706 163.65L86.2074 180.745L63.7398 186.606L23.9329 197.84L37.6089 180.745L15.3855 185.141L34.9226 173.699L17.8276 173.663L0 162.185L21.2466 163.686C41.1093 166.104 51.0406 167.313 51.0406 167.313C51.0406 167.313 41.1093 161.208 21.2466 148.997L89.8706 163.65ZM448.376 176.838L517 162.185C506.418 169.535 501.126 173.21 501.126 173.21C501.126 173.21 507.313 174.419 519.687 176.838L539.224 190.025L519.687 184.688L494.533 184.653L522.861 198.329L491.602 190.025L514.314 211.028L477.926 193.933H452.039L448.376 176.838ZM265.224 38.6027L264.643 24.9131L259.272 14.3836L273.393 24.3165L272.617 11.7692L256.476 0L262.935 1.23231L276.16 9.11072L280.128 21.9033L283.618 2.68525L286.647 18.2675L294.552 7.56344L289.292 27.8065L299.65 15.9009L290.614 40.5665L265.224 38.6027ZM202.862 324.742L215.746 333.329L212.908 356.206L208.583 396.993L204.607 391.154L202.898 376.012L186.536 397.015L193.538 370.466L183.117 391.154L173.837 402.387L177.011 388.467C183.361 372.512 186.536 364.534 186.536 364.534C186.536 364.534 183.361 369.744 177.011 380.164L167.275 384.817L202.862 324.742ZM268.805 335.491L283.782 339.416L288.547 361.971L297.737 401.944L291.835 396.91L286.091 383.534L285.531 383.957L285.486 412.296L282.311 406.19L276.694 369.314H275.961L274.008 396.91L270.589 414.249H269.612L267.414 396.91V381.769L263.262 393.735L254.715 403.88L268.805 335.491Z" fill="#FFD25B"/>
<path fill-rule="evenodd" clip-rule="evenodd" d="M258.866 145.37L233.224 211.063H295.498L277.182 150.254L258.866 145.37Z" fill="#FFD25B"/>
<mask id="mask0" mask-type="alpha" maskUnits="userSpaceOnUse" x="187" y="206" width="117" height="148">
<path d="M200.988 294.549L190.522 321.921C187.479 329.879 186.955 338.58 189.021 346.846C190.812 349.451 194.801 351.242 200.988 352.219C207.175 353.196 211.661 353.221 214.447 352.294L217.848 348.609C222.195 343.898 225.572 338.378 227.788 332.363L255.065 258.292L258.867 258.197V329.101C258.867 337.182 261.164 345.098 265.492 351.923C269.053 353.097 273.194 353.684 277.915 353.684C282.637 353.684 285.811 352.789 287.44 350.998C292.691 344.791 295.96 337.152 296.824 329.068L303.802 263.778L295.499 211.063C290.506 209.761 284.4 209.11 277.183 209.11C269.965 209.11 255.312 208.202 233.224 206.388L200.988 294.549Z" fill="white"/>
</mask>
<g mask="url(#mask0)">
<path d="M200.988 294.549L190.522 321.921C187.479 329.879 186.955 338.58 189.021 346.846C190.812 349.451 194.801 351.242 200.988 352.219C207.175 353.196 211.661 353.221 214.447 352.294L217.848 348.609C222.195 343.898 225.572 338.378 227.788 332.363L255.065 258.292L258.867 258.197V329.101C258.867 337.182 261.164 345.098 265.492 351.923C269.053 353.097 273.194 353.684 277.915 353.684C282.637 353.684 285.811 352.789 287.44 350.998C292.691 344.791 295.96 337.152 296.824 329.068L303.802 263.778L295.499 211.063C290.506 209.761 284.4 209.11 277.183 209.11C269.965 209.11 255.312 208.202 233.224 206.388L200.988 294.549Z" fill="#FF6D5B"/>
<path fill-rule="evenodd" clip-rule="evenodd" d="M234.771 313.642L217.595 317.296L235.538 299.009L230.525 268.667L248.793 279.406L234.771 313.642Z" fill="#FFD25B"/>
</g>
<path fill-rule="evenodd" clip-rule="evenodd" d="M294.033 149.73C307.384 159.173 320.978 165.848 334.817 169.756C348.656 173.663 388.625 173.663 454.726 169.756V211.063L369.28 214.203C364.244 214.388 359.21 213.793 354.356 212.438L303.802 198.328L334.817 286.734L323.685 288.048L317.722 282.374L315.28 287.991L300.504 290.786L295.498 282.374L290.447 291.973L268.635 294.549L274.008 151.684L294.033 149.73ZM241.527 145.578L260.088 148.753L209.291 294.549L188.044 289.944L186.091 283.839L180.381 288.34L175.345 287.258V276.513L165.877 285.854L153.855 283.803L209.291 183.92C192.033 191.27 179.334 194.945 171.194 194.945C163.053 194.945 133.91 194.945 83.7653 194.945V175.653V156.568C141.237 153.312 176.648 151.684 189.998 151.684C203.349 151.684 220.525 149.649 241.527 145.578Z" fill="#2B254E"/>
<path fill-rule="evenodd" clip-rule="evenodd" d="M454.726 169.756H497.585C499.541 169.756 501.126 171.341 501.126 173.297C501.126 175.252 499.541 176.838 497.585 176.838H454.726V169.756ZM41.15 169.756H84.0095V176.838H41.15C39.1943 176.838 37.6089 175.252 37.6089 173.297C37.6089 171.341 39.1943 169.756 41.15 169.756Z" fill="#847DAA"/>
<path fill-rule="evenodd" clip-rule="evenodd" d="M286.778 161.941L291.802 239.853L291.835 239.845L292.568 247.696L289.882 247.66V240.549L285.321 240.968L285.974 247.94H283.288V241.155L278.98 241.551L279.625 248.428H276.938V241.739L272.542 242.143V248.917H270.344L270.582 242.029L268.747 161.941C262.174 161.941 256.52 161.941 256.18 161.941C255.447 161.941 246.167 143.869 280.357 146.555C292.358 147.498 298.287 144.8 301.848 146.555C304.222 147.725 304.629 150.982 303.069 156.324C297.371 160.068 292.487 161.941 288.416 161.941C287.968 161.941 287.416 161.941 286.778 161.941Z" fill="#60588E"/>
<path fill-rule="evenodd" clip-rule="evenodd" d="M187.312 98.2368C189.516 107.935 195.866 115.493 206.361 120.913C216.855 126.332 232.973 130.484 254.715 133.368L319.586 133.4L330.842 128.429L337.092 125.669C344.119 122.566 350.222 117.695 354.805 111.53L357.04 108.524C356.64 106.306 350.372 102.714 338.236 97.7484C326.1 92.7827 310.294 87.5051 290.816 81.9154C283.005 76.638 271.425 75.3735 256.076 78.1218C242.248 80.5977 220.961 80.5783 195.371 90.9104C193.494 91.6683 190.807 94.1105 187.312 98.2368Z" fill="#2B254E"/>
<path fill-rule="evenodd" clip-rule="evenodd" d="M235.666 142.648C232.736 143.299 231.27 145.66 231.27 149.73C231.27 153.8 239.574 157.882 256.18 161.977C258.243 158.969 260.279 156.853 262.285 155.627C264.292 154.401 267.874 153.087 273.031 151.684L235.666 142.648Z" fill="#847DAA"/>
<mask id="mask1" mask-type="alpha" maskUnits="userSpaceOnUse" x="215" y="66" width="109" height="86">
<path d="M269.056 150.944C279.979 150.944 284.401 151.227 298.299 148.095C301.898 147.284 302.423 145.199 305.449 143.468C307.378 142.366 309.834 140.797 311.483 140.133C322.912 135.528 323.047 120.765 323.047 108.403C323.047 90.6833 302.169 74.468 287.233 68.2773C278.835 64.7963 279.93 67.5114 269.056 67.5114C261.54 67.5114 267.113 64.6349 260.594 67.1482C240.909 74.7369 217.5 89.3578 215.401 106.768C213.865 119.508 217.914 137.689 232.767 143.495C233.65 143.84 237.61 145.143 239.413 145.989C241.137 146.797 241.563 148.286 242.391 148.622C250.26 151.819 259.033 150.944 269.056 150.944Z" fill="white"/>
</mask>
<g mask="url(#mask1)">
<path d="M264.628 150.71C275.492 151.852 279.859 152.596 294.009 150.933C297.673 150.503 298.413 148.484 301.604 147.08C303.637 146.185 306.244 144.882 307.953 144.393C319.801 141.008 321.478 126.34 322.771 114.046C324.623 96.4233 305.554 78.1146 291.347 70.3965C283.358 66.0567 284.164 68.8714 273.35 67.7348C265.874 66.9491 271.718 64.671 264.972 66.489C244.602 71.9786 219.792 84.0724 215.885 101.167C213.026 113.677 215.152 132.183 229.317 139.509C230.159 139.945 233.961 141.654 235.666 142.684C237.296 143.668 237.564 145.193 238.353 145.614C245.844 149.616 254.66 149.663 264.628 150.71Z" fill="#FF6D5B"/>
</g>
<path fill-rule="evenodd" clip-rule="evenodd" d="M248.36 89.8742L255.037 90.8127C257.424 91.1481 259.492 92.6353 260.57 94.7904C263.291 100.23 264.596 103.339 264.487 104.119C264.377 104.897 262.344 107.005 258.386 110.443C256.785 111.833 254.661 112.462 252.562 112.167L244.824 111.079C242.56 110.761 240.575 109.405 239.456 107.413C237.365 103.691 236.396 101.286 236.549 100.197C236.704 99.095 238.401 96.5383 241.64 92.5269C243.258 90.5229 245.809 89.5158 248.36 89.8742ZM296.46 95.434L301.265 95.8543C303.794 96.0756 306.028 97.59 307.17 99.8571C309.72 104.92 310.961 107.835 310.894 108.603C310.827 109.366 309.166 111.498 305.91 114.999C304.372 116.653 302.157 117.505 299.906 117.308L294.051 116.796C291.633 116.585 289.477 115.189 288.293 113.07C286.4 109.68 285.499 107.455 285.592 106.394C285.687 105.311 287.053 102.754 289.691 98.7218C291.169 96.462 293.77 95.1986 296.46 95.434Z" fill="white"/>
<path fill-rule="evenodd" clip-rule="evenodd" d="M253.005 103.854C251.117 103.854 249.586 102.323 249.586 100.435C249.586 98.5465 251.117 97.0157 253.005 97.0157C254.894 97.0157 256.424 98.5465 256.424 100.435C256.424 102.323 254.894 103.854 253.005 103.854ZM299.317 109.315C297.429 109.315 295.898 107.785 295.898 105.896C295.898 104.008 297.429 102.477 299.317 102.477C301.206 102.477 302.736 104.008 302.736 105.896C302.736 107.785 301.206 109.315 299.317 109.315ZM277.248 99.4133C277.382 99.0906 277.678 98.864 278.024 98.8189C278.559 98.7494 279.049 99.1267 279.119 99.6617L281.661 119.221C281.672 119.3 281.672 119.379 281.663 119.459C281.601 119.994 281.117 120.379 280.581 120.317L270.41 119.143C270.32 119.133 270.232 119.11 270.148 119.075C269.649 118.869 269.413 118.297 269.62 117.799L277.248 99.4133ZM233.83 119.201L245.365 119.618L253.916 126.365L264.17 122.465L271.746 129.28L283.637 124.286L290.068 128.733L296.181 125.123L309.869 128.328L296.47 129.264L287.622 135.759L281.785 129.312L270.432 135.002L262.318 127.491L254.324 132.212L244.68 123.828L233.83 119.201Z" fill="#2B254E"/>
<path fill-rule="evenodd" clip-rule="evenodd" d="M258.104 39.3941L256.669 55.4635L294.522 60.1036L295.252 43.4819C295.396 40.2035 293.191 37.285 289.998 36.528C283.34 34.9495 278.108 33.9449 274.304 33.5145C271.27 33.1712 268.065 33.0559 264.687 33.1684C261.236 33.2835 258.412 35.9542 258.104 39.3941Z" fill="#60588E"/>
<mask id="mask2" mask-type="alpha" maskUnits="userSpaceOnUse" x="187" y="37" width="171" height="72">
<path d="M258.866 37.1834C248.935 58.3486 234.771 72.6638 216.373 80.1291C204.225 85.0586 195.582 87.9073 191.071 92.6849C189.641 94.1993 188.388 96.0499 187.312 98.2368C191.619 99.5914 194.794 100.487 196.836 100.923C221.99 106.296 240.713 103.323 252.029 101.167C257.43 100.138 265.626 98.1442 276.617 95.1848C282.904 93.4917 289.467 93.0729 295.919 93.9532C322.814 97.6225 339.28 100.434 345.318 102.388C352.068 104.573 355.924 106.759 356.886 108.946C357.608 103.887 355.802 99.9122 351.467 97.0213C349.355 95.613 337.035 92.8345 327.979 86.9671C323.044 83.7696 316.15 77.6639 307.297 68.65C302.022 63.2795 298.347 56.5465 296.683 49.2051L295.01 41.8234L258.866 37.1834Z" fill="white"/>
</mask>
<g mask="url(#mask2)">
<path d="M258.866 37.1834C248.935 58.3486 234.771 72.6638 216.373 80.1291C204.225 85.0586 195.582 87.9073 191.071 92.6849C189.641 94.1993 188.388 96.0499 187.312 98.2368C191.619 99.5914 194.794 100.487 196.836 100.923C221.99 106.296 240.713 103.323 252.029 101.167C257.43 100.138 265.626 98.1442 276.617 95.1848C282.904 93.4917 289.467 93.0729 295.919 93.9532C322.814 97.6225 339.28 100.434 345.318 102.388C352.068 104.573 355.924 106.759 356.886 108.946C357.608 103.887 355.802 99.9122 351.467 97.0213C349.355 95.613 337.035 92.8345 327.979 86.9671C323.044 83.7696 316.15 77.6639 307.297 68.65C302.022 63.2795 298.347 56.5465 296.683 49.2051L295.01 41.8234L258.866 37.1834Z" fill="#60588E"/>
<mask id="mask3" mask-type="alpha" maskUnits="userSpaceOnUse" x="236" y="38" width="46" height="36">
<path d="M236.643 67.9543L252.273 57.6973L258.867 73.0828L266.681 57.6973L281.334 55.7436L266.681 49.1498L256.669 38.8929L236.643 67.9543Z" fill="white"/>
</mask>
<g mask="url(#mask3)">
<path d="M236.643 67.9543L252.273 57.6973L258.867 73.0828L266.681 57.6973L281.334 55.7436L266.681 49.1498L256.669 38.8929L236.643 67.9543Z" fill="#2B254E"/>
<path fill-rule="evenodd" clip-rule="evenodd" d="M262.774 45.4866L252.273 70.6406L258.867 76.746L288.416 55.9878L262.774 45.4866Z" fill="#FFD25B"/>
</g>
</g>
<path d="M85.4748 57.4531C96.5346 57.4531 105.5 48.4874 105.5 37.4276C105.5 26.3678 96.5346 17.4021 85.4748 17.4021C74.415 17.4021 65.4493 26.3678 65.4493 37.4276C65.4493 48.4874 74.415 57.4531 85.4748 57.4531Z" fill="#EBEEF6"/>
<path fill-rule="evenodd" clip-rule="evenodd" d="M129.433 90.6662L126.014 101.167C117.874 101.167 113.804 101.167 113.804 101.167C113.804 101.167 117.874 102.226 126.014 104.342C127.317 112.971 127.968 117.285 127.968 117.285C127.968 117.285 128.782 113.378 130.41 105.563L140.911 103.121L130.41 101.167L129.433 90.6662Z" fill="#FFD25B"/>
<path fill-rule="evenodd" clip-rule="evenodd" d="M379.996 37.4276L376.577 47.9288C368.437 47.9288 364.367 47.9288 364.367 47.9288C364.367 47.9288 368.437 48.987 376.577 51.1035C377.88 59.7324 378.531 64.0469 378.531 64.0469C378.531 64.0469 379.345 60.1394 380.973 52.3246L391.474 49.8825L380.973 47.9288L379.996 37.4276Z" fill="#FFD25B"/>
<path fill-rule="evenodd" clip-rule="evenodd" d="M403.058 132.182L400.471 140.082C394.31 140.082 391.23 140.082 391.23 140.082C391.23 140.082 394.31 140.879 400.471 142.471C401.456 148.962 401.949 152.208 401.949 152.208C401.949 152.208 402.565 149.268 403.797 143.389L411.744 141.552L403.797 140.082L403.058 132.182Z" fill="#FFD25B"/>
<path fill-rule="evenodd" clip-rule="evenodd" d="M179.904 36.2065L177.625 43.1431C172.198 43.1431 169.484 43.1431 169.484 43.1431C169.484 43.1431 172.198 43.8421 177.625 45.2402C178.493 50.94 178.927 53.7899 178.927 53.7899C178.927 53.7899 179.47 51.2088 180.555 46.0468L187.556 44.4336L180.555 43.1431L179.904 36.2065Z" fill="#FFD25B"/>
<path fill-rule="evenodd" clip-rule="evenodd" d="M130.27 251.4C130.271 251.417 130.271 251.435 130.27 251.452C130.173 252.56 124.346 253.524 117.179 252.896C110.011 252.267 104.427 250.892 104.524 249.784C104.529 249.725 104.55 249.668 104.586 249.614L106.477 240.125L106.386 230.94L107.503 219.432L132.696 221.61L129.222 231.285L130.308 251.402L130.27 251.4ZM440.232 269.39C440.238 269.406 440.243 269.423 440.246 269.44C440.439 270.536 435.061 272.974 427.974 274.223C420.888 275.471 415.138 275.588 414.945 274.493C414.934 274.428 414.942 274.361 414.968 274.292L414.919 266.012L410.801 255.815C410.134 254.164 409.809 252.395 409.844 250.614L409.968 244.403L434.866 239.987C435.97 243.22 436.648 246.033 436.898 248.428C437.149 250.823 437.149 254.486 436.898 259.418L440.27 269.382L440.232 269.39ZM388.177 266.334C388.179 266.352 388.179 266.369 388.178 266.387C388.1 267.496 382.292 268.562 375.114 268.058C367.936 267.555 362.329 266.278 362.407 265.168C362.411 265.111 362.43 265.056 362.463 265.002L363.878 256.243L363.94 246.294L364.856 234.769L390.083 236.507L386.59 253.557L388.215 266.336L388.177 266.334Z" fill="#847DAA"/>
<path fill-rule="evenodd" clip-rule="evenodd" d="M119.932 222.616C113.067 222.014 107.58 220.628 107.677 219.52C107.774 218.412 113.418 218.002 120.283 218.603C127.148 219.205 132.635 220.591 132.538 221.699C132.441 222.807 126.798 223.217 119.932 222.616ZM422.797 244.262C416.01 245.457 410.352 245.539 410.159 244.443C409.965 243.348 415.31 241.491 422.097 240.296C428.884 239.1 434.543 239.019 434.736 240.114C434.929 241.209 429.584 243.066 422.797 244.262ZM377.339 237.735C370.465 237.253 364.954 235.963 365.032 234.854C365.109 233.744 370.745 233.235 377.619 233.717C384.494 234.199 390.004 235.489 389.927 236.599C389.849 237.708 384.214 238.217 377.339 237.735Z" fill="#60588E"/>
<path d="M125.948 240.043L125.691 242.982L122.912 242.739L122.719 244.942L119.146 244.63L119.338 242.426L109.532 241.568L109.789 238.63L120.33 231.098L123.903 231.41L123.169 239.8L125.948 240.043ZM113.62 239.578L119.437 240.087L119.888 234.932L113.62 239.578ZM433.118 259.539L433.63 262.444L430.883 262.928L431.267 265.107L427.735 265.73L427.351 263.551L417.657 265.26L417.145 262.356L425.376 252.352L428.909 251.729L430.371 260.023L433.118 259.539ZM421.09 262.281L426.841 261.267L425.942 256.171L421.09 262.281ZM376.089 260.15C370.79 260.15 368.274 257.719 368.274 253.293C368.274 248.887 370.79 246.474 376.089 246.474C381.369 246.474 383.904 248.906 383.904 253.293C383.904 257.7 381.369 260.15 376.089 260.15ZM376.089 257.708C379.109 257.708 380.485 256.139 380.485 253.537C380.485 250.954 379.109 249.405 376.089 249.405C373.069 249.405 371.693 250.935 371.693 253.537C371.693 256.159 373.069 257.708 376.089 257.708Z" fill="white"/>
<path fill-rule="evenodd" clip-rule="evenodd" d="M124.527 186.941L126.584 187.372L121.945 220.28C121.869 220.818 121.371 221.192 120.834 221.117C120.812 221.114 120.791 221.11 120.77 221.105C120.191 220.984 119.805 220.435 119.888 219.85L124.527 186.941ZM380.651 202.029L382.715 202.423L378.651 235.408C378.585 235.947 378.094 236.33 377.555 236.263C377.533 236.261 377.512 236.257 377.49 236.253C376.91 236.142 376.515 235.6 376.587 235.013L380.651 202.029ZM414.843 208.892L416.928 208.629L423.256 241.255C423.359 241.788 423.011 242.304 422.477 242.408C422.456 242.412 422.435 242.415 422.413 242.418C421.827 242.492 421.283 242.098 421.171 241.518L414.843 208.892Z" fill="#2B254E"/>
</svg>
